<svg fill="#000000" xmlns:dc="http://purl.org/dc/elements/1.1/" xmlns:cc="http://creativecommons.org/ns#" xmlns:rdf="http://www.w3.org/1999/02/22-rdf-syntax-ns#" xmlns:svg="http://www.w3.org/2000/svg" xmlns="http://www.w3.org/2000/svg" xmlns:sodipodi="http://sodipodi.sourceforge.net/DTD/sodipodi-0.dtd" xmlns:inkscape="http://www.inkscape.org/namespaces/inkscape" viewBox="0 0 868.66858 868.63246" version="1.1" x="0px" y="0px"><g transform="translate(1069.2572,701.30075)"><path style="" d="m -634.31838,107.95841 0,-59.373263 113.75,0 c 62.5625,0 113.75,-0.42236 113.75,-0.93858 0,-1.2259 -541.5877,-542.811417 -542.8136,-542.811417 -0.515,0 -0.9364,51.4687 -0.9364,114.375 l 0,114.375 -59.34442,0 -59.3444,0 0.01,-216.1281 c 0.01,-170.7522 0.3332,-216.3989 1.5611,-217.4179 1.0546,-0.8753 70.95102,-1.2979 217.46242,-1.3149 l 215.90836,-0.025 0,59.943 0,59.9429 -114.99996,0 c -63.25,0 -115,0.3091 -115,0.6869 -6e-4,0.8981 542.16439,543.063097 543.06255,543.063097 0.37776,0 0.68685,-51.46875 0.68685,-114.374997 l 0,-114.375 59.98864,0 59.98863,0 -0.0611,215.271727 c -0.042,148.03303 -0.46988,215.764273 -1.36985,216.848663 -1.04399,1.25794 -44.9034,1.58192 -216.80254,1.60155 l -215.49376,0.0246 0,-59.37326 z" fill="#000000"/></g></svg>