<svg fill="#000000" xmlns:dc="http://purl.org/dc/elements/1.1/" xmlns:cc="http://creativecommons.org/ns#" xmlns:rdf="http://www.w3.org/1999/02/22-rdf-syntax-ns#" xmlns:svg="http://www.w3.org/2000/svg" xmlns="http://www.w3.org/2000/svg" xmlns:sodipodi="http://sodipodi.sourceforge.net/DTD/sodipodi-0.dtd" xmlns:inkscape="http://www.inkscape.org/namespaces/inkscape" viewBox="0 0 953.12495 952.50004" version="1.1" x="0px" y="0px"><g transform="translate(1877.3172,2135.3378)"><path style="" d="m -1144.1922,-1317.8378 c -74.2476,-74.25 -135.4185,-135 -135.9353,-135 -0.5169,0 -0.9397,51.193 -0.9397,113.7622 l 0,113.7623 -59.0625,-0.3248 -59.0625,-0.3247 0,-215.625 0,-215.625 216.25,0 216.24997,0 0,58.75 0,58.75 -113.06917,0.3192 c -79.7967,0.2253 -113.4534,0.7213 -114.375,1.6858 -0.9266,0.9697 38.0819,40.5252 134.3192,136.2025 l 135.62497,134.8359 -41.868,41.9158 c -23.0274,23.0537 -42.15337,41.9158 -42.50217,41.9158 -0.3488,0 -61.3822,-60.75 -135.6298,-135 z m -691.0381,-344.5798 c -0.4603,-0.4603 -0.8369,-26.8392 -0.8369,-58.6198 0,-51.5374 0.2137,-57.8649 1.9772,-58.5417 1.0875,-0.4173 52.275,-0.7587 113.75,-0.7587 61.475,0 111.7728,-0.4228 111.7728,-0.9397 0,-0.5168 -60.4688,-61.4064 -134.375,-135.3103 -73.9063,-73.9039 -134.375,-134.931 -134.375,-135.6158 0,-1.6906 81.5117,-83.1342 83.2037,-83.1342 0.7387,0 61.4023,60.4688 134.808,134.375 73.4058,73.9063 134.2578,134.375 135.2267,134.375 1.5026,0 1.7616,-16.7285 1.7616,-113.7621 l 0,-113.7621 59.6875,0.3246 59.6875,0.3246 0,215.625 0,215.625 -215.7256,0.316 c -118.6491,0.1738 -216.1023,-0.061 -216.5625,-0.5208 z" fill="#000000"/></g></svg>